# File created by Blade
# Date/Time:  Tue Jan 27 19:58:31 2015
# Frame Rate: 120.000 fps
#------------------------------------------------------
:FULLY-SPECIFIED
:DEGREES
2783
root 6.053053 34.334566 1.955130 29.327349 -32.326066 -39.877356
Spine 4.445029 32.567893 7.185768
Head -16.719482 0.751688 15.055377
LeftShoulder -16.809915 0.747642 31.672893
LeftArm -11.543153 -31.615361 -78.191986
LeftForeArm -40.730995 -0.000000 140.734042
LeftHand 7.417967 -0.000000 -37.959677
LeftHandThumb1 -26.253704 0.000000 33.147579
RightShoulder -7.931962 4.317746 -20.140881
RightArm 34.644680 -38.050569 82.774858
RightForeArm -17.740681 0.000000 29.974601
RightHand 17.413877 -0.000000 5.280241
RightHandThumb1 -24.326973 -0.000000 -32.862282
LeftUpLeg 1.202444 20.999730 22.215298
LeftLeg -5.496044 -0.000000 0.000000
LeftFoot -20.679789 29.367403 -17.074219
LeftToeBase 18.553511 -0.000000 -0.000000
RightUpLeg -14.354631 -62.070513 -38.556856
RightLeg 99.759100 -0.000000 -0.000000
RightFoot 28.816281 -24.765754 20.749580
RightToeBase 10.528253 -0.000000 -0.000000
2784
root 6.052487 34.336287 1.944531 29.270858 -32.044863 -39.740190
Spine 4.498468 32.518946 7.227041
Head -16.842444 0.662375 15.017470
LeftShoulder -16.777948 0.717293 31.645188
LeftArm -11.413822 -31.424624 -78.260505
LeftForeArm -40.757864 -0.000000 140.743954
LeftHand 7.491179 -0.000000 -37.906259
LeftHandThumb1 -26.253704 0.000000 33.147579
RightShoulder -7.898627 4.383859 -20.166145
RightArm 34.668454 -38.144433 82.795402
RightForeArm -17.931226 -0.000000 29.842423
RightHand 17.553495 -0.000000 5.733603
RightHandThumb1 -24.326973 -0.000000 -32.862282
LeftUpLeg 0.996268 20.938607 22.181953
LeftLeg -5.512726 -0.000000 0.000000
LeftFoot -20.535478 29.264725 -16.902566
LeftToeBase 18.506354 -0.000000 -0.000000
RightUpLeg -14.278934 -62.131275 -38.402142
RightLeg 99.654298 -0.000000 -0.000000
RightFoot 28.644995 -24.737326 20.891341
RightToeBase 11.334508 -0.000000 -0.000000
2785
root 6.053332 34.338772 1.929110 29.262912 -31.751161 -39.625139
Spine 4.528624 32.465332 7.288296
Head -17.000099 0.515929 14.950139
LeftShoulder -16.757802 0.650773 31.583471
LeftArm -11.282169 -31.223658 -78.290649
LeftForeArm -40.827857 -0.000000 140.770983
LeftHand 7.545268 -0.000000 -37.818797
LeftHandThumb1 -26.253704 0.000000 33.147579
RightShoulder -7.893184 4.414516 -20.205171
RightArm 34.743746 -38.255407 82.778012
RightForeArm -17.989363 0.000000 29.769001
RightHand 17.480068 -0.000000 5.897333
RightHandThumb1 -24.326973 -0.000000 -32.862282
LeftUpLeg 0.737337 20.795639 22.166346
LeftLeg -5.504153 -0.000000 0.000000
LeftFoot -20.483642 29.183837 -16.862666
LeftToeBase 18.548448 -0.000000 -0.000000
RightUpLeg -14.345112 -62.255864 -38.087844
RightLeg 99.519185 -0.000000 -0.000000
RightFoot 28.690357 -24.780555 20.880849
RightToeBase 11.179054 -0.000000 -0.000000
2786
root 6.052825 34.337000 1.920176 29.216082 -31.568515 -39.494002
Spine 4.575553 32.521155 7.272399
Head -17.118524 0.350410 14.966288
LeftShoulder -16.716757 0.594538 31.589258
LeftArm -11.107712 -31.017239 -78.431518
LeftForeArm -40.759773 0.000000 140.790622
LeftHand 7.538970 -0.000000 -37.828054
LeftHandThumb1 -26.253704 0.000000 33.147579
RightShoulder -7.899977 4.422113 -20.210978
RightArm 34.808211 -38.345432 82.745231
RightForeArm -18.091482 0.000000 29.681099
RightHand 17.419620 -0.000000 5.318127
RightHandThumb1 -24.326973 -0.000000 -32.862282
LeftUpLeg 0.593719 20.725029 22.100130
LeftLeg -5.526118 -0.000000 0.000000
LeftFoot -20.315417 29.117928 -16.637577
LeftToeBase 18.571642 -0.000000 -0.000000
RightUpLeg -14.491753 -62.278497 -37.791032
RightLeg 99.420224 -0.000000 -0.000000
RightFoot 28.612755 -24.871192 21.069325
RightToeBase 11.054719 -0.000000 -0.000000
2787
root 6.055153 34.335644 1.905792 29.184072 -31.320189 -39.348022
Spine 4.591067 32.489275 7.260985
Head -17.216605 0.240931 14.976290
LeftShoulder -16.699378 0.554928 31.622084
LeftArm -10.930868 -30.772301 -78.644704
LeftForeArm -40.702145 -0.000000 140.798488
LeftHand 7.586202 -0.000000 -37.724848
LeftHandThumb1 -26.253704 0.000000 33.147579
RightShoulder -7.880706 4.427197 -20.195984
RightArm 34.914022 -38.468039 82.647222
RightForeArm -17.990780 -0.000000 29.647761
RightHand 17.358505 -0.000000 5.557731
RightHandThumb1 -24.326973 -0.000000 -32.862282
LeftUpLeg 0.363476 20.620520 22.044858
LeftLeg -5.536169 -0.000000 0.000000
LeftFoot -20.338324 29.041892 -16.719881
LeftToeBase 18.518684 -0.000000 -0.000000
RightUpLeg -14.617610 -62.396919 -37.489284
RightLeg 99.331829 -0.000000 -0.000000
RightFoot 28.662750 -24.768013 20.895269
RightToeBase 11.579230 -0.000000 -0.000000
2788
root 6.059064 34.333863 1.892305 29.161063 -31.064117 -39.195863
Spine 4.578963 32.449133 7.252654
Head -17.267776 0.097581 14.976168
LeftShoulder -16.643923 0.454150 31.648558
LeftArm -10.810625 -30.576915 -78.831127
LeftForeArm -40.500893 -0.000000 140.827546
LeftHand 7.657227 -0.000000 -37.620825
LeftHandThumb1 -26.253704 0.000000 33.147579
RightShoulder -7.886613 4.421679 -20.181273
RightArm 34.966873 -38.524701 82.623803
RightForeArm -17.987068 0.000000 29.614759
RightHand 17.378837 -0.000000 5.367849
RightHandThumb1 -24.326973 -0.000000 -32.862282
LeftUpLeg 0.105132 20.444235 21.968735
LeftLeg -5.503827 -0.000000 0.000000
LeftFoot -20.229339 29.016060 -16.542474
LeftToeBase 18.554986 -0.000000 -0.000000
RightUpLeg -14.747545 -62.512091 -37.164315
RightLeg 99.211751 -0.000000 -0.000000
RightFoot 28.611310 -24.770148 20.950472
RightToeBase 10.932562 -0.000000 -0.000000
